{
    "asset" : {
        "generator" : "Khronos glTF Blender I/O v3.2.43",
        "version" : "2.0"
    },
    "scene" : 0,
    "scenes" : [
        {
            "name" : "Scene",
            "nodes" : [
                0,
                1,
                2,
                3,
                4
            ]
        }
    ],
    "nodes" : [
        {
            "mesh" : 0,
            "name" : "suitcase v1",
            "rotation" : [
                0.7071068286895752,
                0,
                0,
                0.7071067094802856
            ]
        },
        {
            "mesh" : 1,
            "name" : "suitcase v1.001",
            "rotation" : [
                0.7071068286895752,
                0,
                0,
                0.7071067094802856
            ]
        },
        {
            "mesh" : 2,
            "name" : "suitcase v1.002",
            "rotation" : [
                0.7071068286895752,
                0,
                0,
                0.7071067094802856
            ]
        },
        {
            "mesh" : 3,
            "name" : "suitcase v1.003",
            "rotation" : [
                0.7071068286895752,
                0,
                0,
                0.7071067094802856
            ]
        },
        {
            "mesh" : 4,
            "name" : "suitcase v1.004",
            "rotation" : [
                0.7071068286895752,
                0,
                0,
                0.7071067094802856
            ]
        }
    ],
    "materials" : [
        {
            "doubleSided" : true,
            "name" : "Opaque(63,63,63)",
            "pbrMetallicRoughness" : {
                "baseColorFactor" : [
                    0.800000011920929,
                    0.800000011920929,
                    0.800000011920929,
                    1
                ],
                "metallicFactor" : 0,
                "roughnessFactor" : 0.5
            }
        }
    ],
    "meshes" : [
        {
            "name" : "suitcase v1",
            "primitives" : [
                {
                    "attributes" : {
                        "POSITION" : 0,
                        "NORMAL" : 1,
                        "TEXCOORD_0" : 2
                    },
                    "indices" : 3,
                    "material" : 0
                }
            ]
        },
        {
            "name" : "suitcase v1.001",
            "primitives" : [
                {
                    "attributes" : {
                        "POSITION" : 4,
                        "NORMAL" : 5,
                        "TEXCOORD_0" : 6
                    },
                    "indices" : 7,
                    "material" : 0
                }
            ]
        },
        {
            "name" : "suitcase v1.002",
            "primitives" : [
                {
                    "attributes" : {
                        "POSITION" : 8,
                        "NORMAL" : 9,
                        "TEXCOORD_0" : 10
                    },
                    "indices" : 11,
                    "material" : 0
                }
            ]
        },
        {
            "name" : "suitcase v1.003",
            "primitives" : [
                {
                    "attributes" : {
                        "POSITION" : 12,
                        "NORMAL" : 13,
                        "TEXCOORD_0" : 14
                    },
                    "indices" : 15,
                    "material" : 0
                }
            ]
        },
        {
            "name" : "suitcase v1.004",
            "primitives" : [
                {
                    "attributes" : {
                        "POSITION" : 16,
                        "NORMAL" : 17,
                        "TEXCOORD_0" : 18
                    },
                    "indices" : 19,
                    "material" : 0
                }
            ]
        }
    ],
    "accessors" : [
        {
            "bufferView" : 0,
            "componentType" : 5126,
            "count" : 7225,
            "max" : [
                73.65455627441406,
                61.27340316772461,
                1.450031042098999
            ],
            "min" : [
                -82.98758697509766,
                -71.70230865478516,
                -10.450031280517578
            ],
            "type" : "VEC3"
        },
        {
            "bufferView" : 1,
            "componentType" : 5126,
            "count" : 7225,
            "type" : "VEC3"
        },
        {
            "bufferView" : 2,
            "componentType" : 5126,
            "count" : 7225,
            "type" : "VEC2"
        },
        {
            "bufferView" : 3,
            "componentType" : 5123,
            "count" : 27378,
            "type" : "SCALAR"
        },
        {
            "bufferView" : 4,
            "componentType" : 5126,
            "count" : 2667,
            "max" : [
                73.33329772949219,
                46.619380950927734,
                -5
            ],
            "min" : [
                -82.66632843017578,
                -71.38103485107422,
                -21.524999618530273
            ],
            "type" : "VEC3"
        },
        {
            "bufferView" : 5,
            "componentType" : 5126,
            "count" : 2667,
            "type" : "VEC3"
        },
        {
            "bufferView" : 6,
            "componentType" : 5126,
            "count" : 2667,
            "type" : "VEC2"
        },
        {
            "bufferView" : 7,
            "componentType" : 5123,
            "count" : 13416,
            "type" : "SCALAR"
        },
        {
            "bufferView" : 8,
            "componentType" : 5126,
            "count" : 4820,
            "max" : [
                73.86502075195312,
                47.13532257080078,
                5.45003080368042
            ],
            "min" : [
                -83.30237579345703,
                -71.92674255371094,
                -10.450031280517578
            ],
            "type" : "VEC3"
        },
        {
            "bufferView" : 9,
            "componentType" : 5126,
            "count" : 4820,
            "type" : "VEC3"
        },
        {
            "bufferView" : 10,
            "componentType" : 5126,
            "count" : 4820,
            "type" : "VEC2"
        },
        {
            "bufferView" : 11,
            "componentType" : 5123,
            "count" : 26586,
            "type" : "SCALAR"
        },
        {
            "bufferView" : 12,
            "componentType" : 5126,
            "count" : 2704,
            "max" : [
                73.33329772949219,
                46.619380950927734,
                16.524999618530273
            ],
            "min" : [
                -82.66632843017578,
                -71.38103485107422,
                0
            ],
            "type" : "VEC3"
        },
        {
            "bufferView" : 13,
            "componentType" : 5126,
            "count" : 2704,
            "type" : "VEC3"
        },
        {
            "bufferView" : 14,
            "componentType" : 5126,
            "count" : 2704,
            "type" : "VEC2"
        },
        {
            "bufferView" : 15,
            "componentType" : 5123,
            "count" : 14016,
            "type" : "SCALAR"
        },
        {
            "bufferView" : 16,
            "componentType" : 5126,
            "count" : 6231,
            "max" : [
                73.65455627441406,
                63.8779296875,
                5.45003080368042
            ],
            "min" : [
                -82.98758697509766,
                -71.70230865478516,
                -6.2381911277771
            ],
            "type" : "VEC3"
        },
        {
            "bufferView" : 17,
            "componentType" : 5126,
            "count" : 6231,
            "type" : "VEC3"
        },
        {
            "bufferView" : 18,
            "componentType" : 5126,
            "count" : 6231,
            "type" : "VEC2"
        },
        {
            "bufferView" : 19,
            "componentType" : 5123,
            "count" : 27801,
            "type" : "SCALAR"
        }
    ],
    "bufferViews" : [
        {
            "buffer" : 0,
            "byteLength" : 86700,
            "byteOffset" : 0
        },
        {
            "buffer" : 0,
            "byteLength" : 86700,
            "byteOffset" : 86700
        },
        {
            "buffer" : 0,
            "byteLength" : 57800,
            "byteOffset" : 173400
        },
        {
            "buffer" : 0,
            "byteLength" : 54756,
            "byteOffset" : 231200
        },
        {
            "buffer" : 0,
            "byteLength" : 32004,
            "byteOffset" : 285956
        },
        {
            "buffer" : 0,
            "byteLength" : 32004,
            "byteOffset" : 317960
        },
        {
            "buffer" : 0,
            "byteLength" : 21336,
            "byteOffset" : 349964
        },
        {
            "buffer" : 0,
            "byteLength" : 26832,
            "byteOffset" : 371300
        },
        {
            "buffer" : 0,
            "byteLength" : 57840,
            "byteOffset" : 398132
        },
        {
            "buffer" : 0,
            "byteLength" : 57840,
            "byteOffset" : 455972
        },
        {
            "buffer" : 0,
            "byteLength" : 38560,
            "byteOffset" : 513812
        },
        {
            "buffer" : 0,
            "byteLength" : 53172,
            "byteOffset" : 552372
        },
        {
            "buffer" : 0,
            "byteLength" : 32448,
            "byteOffset" : 605544
        },
        {
            "buffer" : 0,
            "byteLength" : 32448,
            "byteOffset" : 637992
        },
        {
            "buffer" : 0,
            "byteLength" : 21632,
            "byteOffset" : 670440
        },
        {
            "buffer" : 0,
            "byteLength" : 28032,
            "byteOffset" : 692072
        },
        {
            "buffer" : 0,
            "byteLength" : 74772,
            "byteOffset" : 720104
        },
        {
            "buffer" : 0,
            "byteLength" : 74772,
            "byteOffset" : 794876
        },
        {
            "buffer" : 0,
            "byteLength" : 49848,
            "byteOffset" : 869648
        },
        {
            "buffer" : 0,
            "byteLength" : 55602,
            "byteOffset" : 919496
        }
    ],
    "buffers" : [
        {
            "byteLength" : 975100,
            "uri" : "data:application/octet-stream;base64,"
        }
    ]
}
